# xmcd
#
# Track frame offsets: 
#        150
#        17008
#        35966
#        52007
#        65947
#        82790
#        104578
#        120056
#        136156
#        155545
#        169522
#        186985
#        198346
#        221810
#        246106
#        262292
#
# Disc length: 3682 seconds
#
# Revision: 2
# Processed by: cddbd v1.5.1PL2 Copyright (c) Steve Scherf et al.
# Submitted via: ExactAudioCopy v0.90b4
#
DISCID=ea0e6010
DTITLE=Various Artist - Agora É Que São Elas Nacional (OST)
DYEAR=2003
DGENRE=Soundtrack
TTITLE0=Ritchie - Lágrimas Demais
TTITLE1=Lulu Santos - Já É
TTITLE2=Daniela Mercury - Meu Plano
TTITLE3=Moska - Pensando Em Você
TTITLE4=Adriana Calcanhotto - Justo Agora
TTITLE5=Tim Maia - Eu Amo Você
TTITLE6=Marina Lima (Part. Esp. Alvin L.) - Sugar
TTITLE7=Tony Platão - Calígula Freejack
TTITLE8=Guilherme Arantes - Casulo
TTITLE9=João Donato (Part. Esp. Marcelo D2) - Balança
TTITLE10=Preta Gil - Espelhos D'Água
TTITLE11=Rita Lee - Aqui, Ali, Em Qualquer Lugar (Here, There And Ever
TTITLE11=ywhere)
TTITLE12=Max Viana - Canções De Rei
TTITLE13=Lenine - Agora É Que São Elas (Essas Mulheres Fantásticas E S
TTITLE13=eus Rebentos Maravilhosos)
TTITLE14=Bossa Lounge - Bossa Nova (Instrumental)
TTITLE15=Alpha Beat - Night Dance (Instrumental)
EXTD=
EXTT0=
EXTT1=
EXTT2=
EXTT3=
EXTT4=
EXTT5=
EXTT6=
EXTT7=
EXTT8=
EXTT9=
EXTT10=
EXTT11=
EXTT12=
EXTT13=
EXTT14=
EXTT15=
PLAYORDER=
